# AST/ASF file generated using VICON BodyLanguage
# -----------------------------------------------
:version 1.10
:name VICON
:units
  mass 1.0
  length 0.45
  angle deg
:documentation
   .ast/.asf automatically generated from VICON data using
   VICON BodyBuilder and BodyLanguage model FoxedUp or BRILLIANT.MOD
:root
   order TX TY TZ RX RY RZ
   axis XYZ
   position 0 0 0  
   orientation 0 0 0 
:bonedata
  begin
     id 1 
     name lhipjoint
     direction 0.521452 -0.77106 0.36545 
     length 2.0933 
     axis 0 0 0  XYZ
  end
  begin
     id 2 
     name lfemur
     direction 0.34202 -0.939693 0  
     length 6.83441  
     axis 0 0 20  XYZ
    dof rx ry rz
    limits (-160.0 20.0)
           (-70.0 70.0)
           (-60.0 70.0)
  end
  begin
     id 3 
     name ltibia
     direction 0.34202 -0.939693 0   
     length 7.28749   
     axis 0 0 20   XYZ
    dof rx
    limits (-10.0 170.0)
  end
  begin
     id 4 
     name lfoot
     direction 0.100608 -0.276418 0.955757   
     length 1.52195   
     axis -90 7.62852e-016 20   XYZ
    dof rx rz
    limits (-45.0 90.0)
           (-70.0 20.0)
  end
  begin
     id 5 
     name ltoes
     direction 1.53558e-011 -4.21907e-011 1   
     length 0.770459   
     axis -90 7.62852e-016 20   XYZ
    dof rx
    limits (-90.0 20.0)
  end
  begin
     id 6 
     name rhipjoint
     direction -0.488071 -0.788702 0.373812   
     length 2.04648  
     axis 0 0 0  XYZ 
  end
  begin
     id 7 
     name rfemur
     direction -0.34202 -0.939693 0   
     length 6.92583   
     axis 0 0 -20   XYZ
    dof rx ry rz
    limits (-160.0 20.0)
           (-70.0 70.0)
           (-70.0 60.0)
  end
  begin
     id 8 
     name rtibia
     direction -0.34202 -0.939693 0   
     length 7.41043   
     axis 0 0 -20   XYZ
    dof rx
    limits (-10.0 170.0)
 end
 begin
     id 9 
     name rfoot
     direction -0.0784433 -0.215521 0.973343   
     length 1.67708  
     axis -90 -7.62852e-016 -20   XYZ
    dof rx rz
    limits (-45.0 90.0)
           (-20.0 70.0)
  end
  begin
     id 10 
     name rtoes
     direction -1.53551e-011 -4.21842e-011 1   
     length 0.849787   
     axis -90 -7.62852e-016 -20   XYZ
    dof rx
    limits (-90.0 20.0)
  end
  begin
     id 11 
     name lowerback
     direction -0.0122332 0.997575 -0.0685192   
     length 1.98724   
     axis 0 0 0   XYZ
    dof rx ry rz
    limits (-20.0 45.0)
           (-30.0 30.0)
           (-30.0 30.0)
  end
  begin
     id 12 
     name upperback
     direction 0.0182347 0.999724 -0.0148421   
     length 1.99029   
     axis 0 0 0   XYZ
    dof rx ry rz
    limits (-20.0 45.0)
           (-30.0 30.0)
           (-30.0 30.0)
  end
  begin
     id 13 
     name thorax
     direction 0.0242908 0.99956 0.0170184   
     length 1.99573   
     axis 0 0 0   XYZ
    dof rx ry rz
    limits (-20.0 45.0)
           (-30.0 30.0)
           (-30.0 30.0)
  end
  begin
     id 14 
     name lowerneck
     direction 0.0654488 0.985533 0.156338   
     length 1.4285   
     axis 0 0 0   XYZ
    dof rx ry rz
    limits (-20.0 45.0)
           (-30.0 30.0)
           (-30.0 30.0)
  end
  begin
     id 15 
     name upperneck
     direction -0.02953 0.998556 -0.0448842   
     length 1.44709   
     axis 0 0 0   XYZ
    dof rx ry rz
    limits (-20.0 45.0)
           (-30.0 30.0)
           (-30.0 30.0)
  end
  begin
     id 16
     name head
     direction -0.0155588 0.999386 -0.0314063  
     length 1.44689  
     axis 0 0 0   XYZ
    dof rx ry rz
    limits (-20.0 45.0)
           (-30.0 30.0)
           (-30.0 30.0)
  end
  begin
     id 17 
     name lclavicle
     direction 0.968229 0.236071 -0.0824755  
     length 3.60593  
     axis 0 0 0   XYZ
    dof ry rz
    limits (-20.0 10.0)
           (0.0 20.0)
  end
  begin
     id 18 
     name lhumerus
     direction 1 -4.48968e-011 7.8138e-029   
     length 5.06035   
     axis 180 -30 -90   XYZ
    dof rx ry rz
    limits (-60.0 90.0)
           (-90.0 90.0)
           (-90.0 90.0)
  end
  begin
     id 19
     name lradius
     direction 1 -4.48967e-011 9.02887e-028   
     length 3.1478   
     axis 180 -30 -90   XYZ
    dof rx
    limits (-10.0 170.0)
  end
  begin
     id 20
     name lwrist
     direction 1 -4.48961e-011 7.20928e-028   
     length 1.5739   
     axis -5.52449e-016 90 90   XYZ
    dof ry
    limits (-180.0 0.0)
 end
  begin
     id 21 
     name lhand
     direction 1 -4.48972e-011 1.44186e-027   
     length 0.606747   
     axis -9.20027e-016 90 90   XYZ
    dof rx rz
    limits (-90.0 90.0)
           (-45.0 45.0)
  end
  begin
     id 22 
     name lfingers
     direction 1 -4.48943e-011 2.88371e-027   
     length 0.489175   
     axis -1.84005e-015 90 90   XYZ
    dof rx
    limits (0.0 90.0)
  end
  begin
     id 23
     name lthumb
     direction 0.707107 -6.34917e-011 0.707107   
     length 0.70236   
     axis -90 45 2.85299e-015   XYZ
    dof rx rz
    limits (-45.0 45.0)
           (-45.0 45.0)
  end
  begin
     id 24 
     name rclavicle
     direction -0.978165 0.207816 0.0022268   
     length 3.35425  
     axis 0 0 0   XYZ 
    dof ry rz
    limits (-10.0 20.0)
           (-20.0 0.0)
  end
  begin
     id 25 
     name rhumerus
     direction -1 -4.48964e-011 -4.02159e-027  
     length 5.12273   
     axis 180 30 90   XYZ
    dof rx ry rz
    limits (-90.0 60.0)
           (-90.0 90.0)
           (-90.0 90.0)
  end
  begin
     id 26 
     name rradius
     direction -1 -4.48966e-011 1.62746e-027   
     length 3.422   
     axis 180 30 90   XYZ
    dof rx
    limits (-10.0 170.0)
  end
  begin
     id 27 
     name rwrist
     direction -1 -4.4896e-011 7.20928e-028   
     length 1.711   
     axis -5.52449e-016 -90 -90   XYZ
    dof ry
    limits (-180.0 0.0)
  end
  begin
     id 28
     name rhand
     direction -1 -4.48979e-011 1.44186e-027   
     length 0.704599   
     axis -9.20027e-016 -90 -90   XYZ
    dof rx rz
    limits (-90.0 90.0)
           (-45.0 45.0)
  end
  begin
     id 29
     name rfingers
     direction -1 -4.48962e-011 2.88371e-027   
     length 0.568066   
     axis -1.84005e-015 -90 -90   XYZ
    dof rx
    limits (0.0 90.0)
  end
  begin
     id 30
     name rthumb
     direction -0.707107 -6.34949e-011 0.707107   
     length 0.815633   
     axis -90 -45 -2.85299e-015   XYZ
    dof rx rz
    limits (-45.0 45.0)
           (-45.0 45.0)
  end
:hierarchy
  begin
    root lhipjoint rhipjoint lowerback
    lhipjoint lfemur
    lfemur ltibia
    ltibia lfoot
    lfoot ltoes
    rhipjoint rfemur
    rfemur rtibia
    rtibia rfoot
    rfoot rtoes
    lowerback upperback
    upperback thorax
    thorax lowerneck lclavicle rclavicle
    lowerneck upperneck
    upperneck head
    lclavicle lhumerus
    lhumerus lradius
    lradius lwrist
    lwrist lhand lthumb
    lhand lfingers
    rclavicle rhumerus
    rhumerus rradius
    rradius rwrist
    rwrist rhand rthumb
    rhand rfingers
  end

#!OML:ASF E:\id_vita\Project 1\Capture day 1\Session 1\Male1.ASF
:FULLY-SPECIFIED
:DEGREES
188
root 39.6661 15.9805 0.637378 -17.0751 -82.9273 56.8992
lowerback 31.3185 -1.34813 0.0755893
upperback 15.7512 -3.25014 -2.05841
thorax 0.672815 -2.00877 -1.37245
lowerneck -8.48177 -0.961287 7.49709
upperneck 40.029 -6.16434 1.33065
head 15.4142 -1.63747 -1.77415
rclavicle 3.24019e-014 2.55066e-014
rhumerus 49.7465 10.3708 -69.1703
rradius 21.5865
rwrist 46.4996
rhand -32.2088 24.1307
rfingers 7.12502
rthumb -5.45035 -5.77926
lclavicle 3.24019e-014 2.55066e-014
lhumerus 57.6631 -26.9634 63.1311
lradius 20.6281
lwrist -38.6903
lhand -34.1265 59.8139
lfingers 7.12502
lthumb -7.30169 89.668
rfemur -59.1458 -10.2933 13.0925
rtibia 42.8981
rfoot -19.9125 -11.882
rtoes -2.30267
lfemur -59.4218 1.27324 -31.3419
ltibia 38.5294
lfoot -24.8745 -4.39209
ltoes -5.82658
189
root 39.6393 15.9818 0.642239 -17.9035 -82.9063 57.8933
lowerback 31.214 -1.36988 -0.0182778
upperback 15.775 -3.30551 -2.18077
thorax 0.740426 -2.03468 -1.44241
lowerneck -8.25344 -0.910573 7.63187
upperneck 40.0822 -6.11309 1.29932
head 15.3865 -1.60552 -1.79937
rclavicle -2.65378e-014 2.47922e-014
rhumerus 49.6094 10.3443 -69.464
rradius 21.5276
rwrist 46.5434
rhand -32.2495 24.1005
rfingers 7.12502
rthumb -5.48967 -5.80839
lclavicle -2.65378e-014 2.47922e-014
lhumerus 57.1146 -26.7197 63.8537
lradius 20.6886
lwrist -39.4973
lhand -34.2603 59.7391
lfingers 7.12502
lthumb -7.4308 89.5886
rfemur -59.0371 -10.1841 13.095
rtibia 42.9283
rfoot -20.3611 -11.9437
rtoes 2.22532
lfemur -59.4284 1.27699 -31.5126
ltibia 38.3911
lfoot -24.9427 -4.18861
ltoes -6.22116
190
root 39.6111 15.9849 0.64852 -17.3513 -82.9053 57.5065
lowerback 31.0795 -1.44962 0.0658234
upperback 15.8605 -3.39054 -2.26104
thorax 0.887176 -2.06798 -1.56273
lowerneck -8.15292 -0.907162 7.88341
upperneck 39.9201 -6.03038 1.0652
head 15.2625 -1.57274 -1.92377
rclavicle 1.64991e-014 9.43606e-015
rhumerus 49.7621 10.3785 -69.5805
rradius 21.3447
rwrist 46.4702
rhand -32.2525 24.113
rfingers 7.12502
rthumb -5.49256 -5.7958
lclavicle 1.64991e-014 9.43606e-015
lhumerus 57.0505 -26.5859 63.8813
lradius 20.765
lwrist -39.7493
lhand -34.3566 60.0038
lfingers 7.12502
lthumb -7.52377 89.85
rfemur -58.9439 -10.1313 13.2892
rtibia 42.9701
rfoot -20.6463 -11.9822
rtoes 2.34107
lfemur -59.449 1.17268 -31.4359
ltibia 38.3065
lfoot -24.9976 -3.98842
ltoes -6.29743
191
root 39.5846 15.9858 0.654899 -16.3351 -82.841 56.6944
lowerback 30.8962 -1.51364 0.173933
upperback 15.7943 -3.42516 -2.275
thorax 0.881373 -2.07248 -1.63314
lowerneck -7.94557 -0.938308 7.8794
upperneck 40.2871 -6.16048 1.09123
head 15.401 -1.61321 -1.93308
rclavicle 2.10712e-014 4.48508e-015
rhumerus 49.5715 10.2324 -70.0245
rradius 21.0568
rwrist 46.8234
rhand -32.2749 24.2192
rfingers 7.12502
rthumb -5.51417 -5.68907
lclavicle 2.10712e-014 4.48508e-015
lhumerus 56.784 -26.7259 64.0699
lradius 20.7921
lwrist -39.9821
lhand -34.4982 60.3909
lfingers 7.12502
lthumb -7.66043 269.768
rfemur -58.9447 -10.1649 13.5246
rtibia 43.0101
rfoot -20.5795 -12.1414
rtoes -2.16329
lfemur -59.5449 0.968046 -31.3189
ltibia 38.2939
lfoot -25.0933 -3.8019
ltoes -6.26265
192
root 39.56 15.9834 0.657544 -15.9505 -82.8153 56.6418
lowerback 30.5871 -1.48809 0.120587
upperback 15.7084 -3.38445 -2.27204
thorax 0.917741 -2.04966 -1.61862
lowerneck -7.86111 -0.943645 7.90826
upperneck 40.6889 -6.24711 1.04142
head 15.5847 -1.63478 -1.9784
rclavicle 2.20651e-014 4.06266e-015
rhumerus 49.2135 9.95903 -70.5754
rradius 20.9905
rwrist 47.3334
rhand -32.2743 24.3137
rfingers 7.12502
rthumb -5.51361 -5.59456
lclavicle 2.20651e-014 4.06266e-015
lhumerus 56.4711 -26.8379 64.4596
lradius 20.7455
lwrist -40.3327
lhand -34.6856 60.5886
lfingers 7.12502
lthumb -7.84137 269.577
rfemur -59.0784 -10.1633 13.7563
rtibia 43.0581
rfoot -20.7387 -12.3129
rtoes -4.08899
lfemur -59.8021 0.818393 -31.2775
ltibia 38.3281
lfoot -25.1713 -3.48757
ltoes -6.20838
193
root 39.5357 15.9837 0.659988 -15.3324 -82.7757 56.3996
lowerback 30.1989 -1.53438 0.147322
upperback 15.6208 -3.41175 -2.32884
thorax 0.977855 -2.05136 -1.69867
lowerneck -7.68229 -0.874222 7.90573
upperneck 40.8288 -6.20789 1.13137
head 15.6254 -1.60838 -1.93351
rclavicle -1.72943e-014 9.18758e-015
rhumerus 48.9282 10.0661 -70.6105
rradius 21.0091
rwrist 47.2299
rhand -32.2057 24.3213
rfingers 7.12502
rthumb -5.44736 -5.58864
lclavicle -1.72943e-014 9.18758e-015
lhumerus 56.2259 -26.8981 64.5249
lradius 20.7529
lwrist -40.4071
lhand -34.82 60.7775
lfingers 7.12502
lthumb -7.97105 269.393
rfemur -59.2111 -10.147 14.0001
rtibia 43.133
rfoot -20.9975 -12.3549
rtoes -3.442
lfemur -60.0875 0.653096 -31.2181
ltibia 38.359
lfoot -25.2338 -3.20092
ltoes -5.61691
194
root 39.5094 15.989 0.661056 -15.1901 -82.8383 56.612
lowerback 29.7956 -1.52342 0.0675155
upperback 15.551 -3.3989 -2.3837
thorax 1.07263 -2.04177 -1.72881
lowerneck -7.436 -0.820201 7.93704
upperneck 40.845 -6.14968 1.18231
head 15.582 -1.5812 -1.90366
rclavicle 7.77248e-014 3.39176e-014
rhumerus 48.9477 10.7303 -69.764
rradius 20.7895
rwrist 46.2017
rhand -32.1256 24.2199
rfingers 7.12502
rthumb -5.37002 -5.6921
lclavicle 7.77248e-014 3.39176e-014
lhumerus 55.9961 -26.9225 64.5532
lradius 20.7611
lwrist -40.4277
lhand -34.8952 60.9678
lfingers 7.12502
lthumb -8.04359 269.205
rfemur -59.3369 -10.0399 14.2187
rtibia 43.2259
rfoot -21.1861 -12.1796
rtoes 1.43742
lfemur -60.3724 0.681316 -31.2548
ltibia 38.3806
lfoot -25.2933 -3.13282
ltoes -4.86293
195
root 39.4825 15.9942 0.669039 -14.8567 -82.6618 56.4088
lowerback 29.6889 -1.61879 0.122831
upperback 15.5263 -3.49379 -2.41834
thorax 1.08272 -2.07957 -1.77456
lowerneck -7.28212 -0.773026 7.97118
upperneck 40.8445 -6.08899 1.20178
head 15.5493 -1.5537 -1.88927
rclavicle 4.85035e-014 5.87098e-014
rhumerus 48.6011 10.6503 -70.0334
rradius 20.934
rwrist 46.4173
rhand -32.0994 24.2919
rfingers 7.12502
rthumb -5.3447 -5.62068
lclavicle 4.85035e-014 5.87098e-014
lhumerus 55.6472 -26.8971 64.9512
lradius 20.7516
lwrist -40.7186
lhand -34.9509 61.1025
lfingers 7.12502
lthumb -8.09735 269.073
rfemur -59.1751 -10.2488 14.3846
rtibia 43.3336
rfoot -21.7065 -11.8102
rtoes -1.04146
lfemur -60.3575 0.449598 -31.2963
ltibia 38.3596
lfoot -25.295 -3.02458
ltoes -4.40156
196
root 39.4598 15.9959 0.67473 -14.4065 -82.5852 56.0864
lowerback 29.6394 -1.70407 0.195663
upperback 15.4955 -3.57578 -2.47322
thorax 1.0589 -2.10991 -1.85366
lowerneck -7.19261 -0.669894 7.85674
upperneck 40.7496 -5.9979 1.47501
head 15.5033 -1.50938 -1.73771
rclavicle -3.1408e-014 -3.10104e-014
rhumerus 48.4302 10.811 -70.0167
rradius 21.0066
rwrist 46.2035
rhand -32.1245 24.3605
rfingers 7.12502
rthumb -5.36898 -5.55153
lclavicle -3.1408e-014 -3.10104e-014
lhumerus 55.2327 -26.7871 65.3719
lradius 20.7984
lwrist -41.0716
lhand -35.115 61.3643
lfingers 7.12502
lthumb -8.25574 268.817
rfemur -59.0816 -10.4461 14.72
rtibia 43.4176
rfoot -22.0528 -11.6147
rtoes -1.16771
lfemur -60.3501 0.271924 -31.2355
ltibia 38.3312
lfoot -25.281 -2.81616
ltoes -4.48745
197
root 39.4331 15.9981 0.67949 -12.9986 -82.4168 54.7317
lowerback 29.6614 -1.83608 0.347549
upperback 15.4669 -3.69217 -2.43956
thorax 1.00677 -2.15644 -1.86822
lowerneck -7.16918 -0.649474 7.96673
upperneck 40.7237 -5.93687 1.34673
head 15.4763 -1.48636 -1.80221
rclavicle -4.45278e-014 -5.62809e-015
rhumerus 48.1911 10.7094 -70.4421
rradius 21.053
rwrist 46.5272
rhand -32.2007 24.5523
rfingers 7.12502
rthumb -5.44255 -5.3578
lclavicle -4.45278e-014 -5.62809e-015
lhumerus 54.8305 -26.6361 65.8548
lradius 20.811
lwrist -41.5049
lhand -35.3901 61.8453
lfingers 7.12502
lthumb -8.52121 268.347
rfemur -58.8771 -10.6989 15.1348
rtibia 43.5023
rfoot -22.3594 -11.6809
rtoes -3.4978
lfemur -60.251 0.043595 -31.0998
ltibia 38.2955
lfoot -25.337 -2.6853
ltoes -4.64468
198
root 39.4019 16.003 0.679206 -12.2471 -82.3595 53.9643
lowerback 29.7412 -1.87101 0.314609
upperback 15.4327 -3.73534 -2.36734
thorax 0.936969 -2.18193 -1.7533
lowerneck -7.20254 -0.724179 8.12513
upperneck 40.7731 -5.93532 0.94926
head 15.4794 -1.50626 -1.99931
rclavicle 1.09332e-014 -9.00743e-015
rhumerus 47.9043 10.6686 -70.8147
rradius 21.14
rwrist 46.8702
rhand -32.2716 24.7323
rfingers 7.12502
rthumb -5.51098 -5.17603
lclavicle 1.09332e-014 -9.00743e-015
lhumerus 54.5345 -26.5016 66.1281
lradius 20.8208
lwrist -41.6642
lhand -35.6064 62.2108
lfingers 7.12502
lthumb -8.72998 267.99
rfemur -58.5731 -10.8251 15.528
rtibia 43.5782
rfoot -22.6351 -11.9325
rtoes -2.9194
lfemur -60.0871 0.0464553 -31.0489
ltibia 38.2864
lfoot -25.5444 -2.67938
ltoes -4.22276
199
root 39.3714 16.0047 0.678989 -12.4912 -82.3031 54.1587
lowerback 29.8964 -1.90381 0.196642
upperback 15.3737 -3.7994 -2.35867
thorax 0.80485 -2.21961 -1.64939
lowerneck -7.17052 -0.758243 8.03178
upperneck 40.8173 -5.96874 0.936565
head 15.4935 -1.53493 -1.9931
rclavicle 3.4191e-014 2.07481e-015
rhumerus 47.6337 10.7643 -71.1352
rradius 21.1809
rwrist 47.0266
rhand -32.2831 24.8656
rfingers 7.12502
rthumb -5.52207 -5.04245
lclavicle 3.4191e-014 2.07481e-015
lhumerus 54.2068 -26.4121 66.3
lradius 20.8575
lwrist -41.6966
lhand -35.7658 62.4283
lfingers 7.12502
lthumb -8.88379 267.779
rfemur -58.2462 -10.9828 15.8454
rtibia 43.6536
rfoot -22.6123 -12.3263
rtoes -5.9214
lfemur -59.8737 0.0191584 -31.0677
ltibia 38.2726
lfoot -25.651 -2.64277
ltoes -3.79409
